# xmcd CD database file
#
# Track frame offsets:
#	150
#	13868
#	25506
#	40715
#	54826
#	67387
#	78684
#	94145
#	109447
#	124842
#	141047
#	158827
#
# Disc length: 2383 seconds
#
# Revision: 2
# Processed by: cddbd v1.5.2PL0 Copyright (c) Steve Scherf et al.
# Submitted via: CDex 1.51
#
DISCID=a0094d0c
DTITLE=Thelonious Monk - Vol.03 - I Should Care
DYEAR=1900
DGENRE=Jazz
TTITLE0=I Should Care
TTITLE1=Evidence
TTITLE2=Mysterioso
TTITLE3=Epistrophy
TTITLE4=I Mean You
TTITLE5=Leap Frog
TTITLE6=Bloomdido
TTITLE7=An Oscar For Treadwell
TTITLE8=My Melancholy Baby
TTITLE9=Mohawk
TTITLE10=Relaxin' With Lee
TTITLE11=Ask Me Now  (Alternate Take)
EXTD=
EXTT0=
EXTT1=
EXTT2=
EXTT3=
EXTT4=
EXTT5=
EXTT6=
EXTT7=
EXTT8=
EXTT9=
EXTT10=
EXTT11=
PLAYORDER=
